<?xml version="1.0" standalone="no"?>
<!DOCTYPE svg PUBLIC "-//W3C//DTD SVG 20010904//EN"
 "http://www.w3.org/TR/2001/REC-SVG-20010904/DTD/svg10.dtd">
<svg version="1.0" xmlns="http://www.w3.org/2000/svg"
 width="666.000000pt" height="666.000000pt" viewBox="0 0 666.000000 666.000000"
 preserveAspectRatio="xMidYMid meet">
<metadata>
Created by potrace 1.14, written by Peter Selinger 2001-2017
</metadata>
<g transform="translate(0.000000,666.000000) scale(0.100000,-0.100000)"
fill="#000000" stroke="none">
<path d="M2249 6586 c-85 -71 -97 -86 -137 -168 -2 -5 0 -8 5 -8 4 0 14 14 22
31 8 18 51 69 97 115 46 46 82 84 81 84 -2 0 -32 -24 -68 -54z"/>
<path d="M3207 6626 c-62 -23 -63 -22 73 -42 84 -12 170 -47 210 -85 22 -22
40 -45 40 -53 0 -22 -114 -40 -255 -39 -71 0 -222 2 -335 4 -253 5 -324 -10
-427 -88 -32 -24 -41 -18 -24 15 4 9 11 31 15 47 4 17 -13 -10 -38 -60 -50
-101 -78 -133 -129 -144 -70 -16 -167 47 -208 134 -28 60 -23 16 6 -49 14 -31
20 -56 15 -56 -6 0 -28 12 -49 26 -51 33 -124 52 -186 47 -108 -9 -279 -124
-342 -230 -24 -41 -26 -54 -29 -196 -6 -260 -15 -296 -76 -322 -44 -18 -86 -7
-128 35 -51 51 -63 102 -65 286 -1 85 -5 157 -8 161 -14 13 -115 -104 -145
-168 -82 -172 -59 -347 62 -476 l30 -33 -30 -1 c-76 -2 -100 -22 -108 -93 -8
-71 -44 -118 -142 -186 -50 -35 -150 -86 -186 -95 -34 -9 -39 13 -18 80 38
121 90 179 216 240 41 19 78 35 83 35 6 0 13 5 17 11 13 22 -185 5 -231 -18
-92 -48 -125 -100 -190 -300 -22 -68 -44 -123 -48 -123 -21 0 -69 45 -88 82
-21 40 -26 116 -15 203 5 38 5 37 -15 -15 -12 -31 -22 -86 -24 -126 -3 -84 12
-121 78 -191 96 -102 147 -194 151 -276 3 -47 0 -55 -28 -83 -31 -31 -82 -51
-140 -56 -30 -3 -31 -7 -13 -51 23 -57 20 -117 -11 -175 -28 -54 -228 -266
-243 -257 -10 7 -3 133 11 185 24 88 76 156 150 196 45 25 43 25 -40 4 -85
-23 -134 -59 -170 -129 -15 -31 -19 -55 -16 -122 3 -81 16 -138 71 -304 45
-138 57 -212 41 -262 -6 -20 -5 -21 28 -11 65 20 85 -8 41 -60 l-25 -30 25
-56 c14 -31 28 -74 31 -96 l6 -39 -101 39 c-57 22 -104 40 -106 40 -2 0 -1 -9
2 -19 8 -32 49 -64 136 -106 77 -38 82 -42 79 -69 -2 -16 -38 -96 -80 -177
-75 -145 -76 -150 -79 -228 -1 -44 2 -95 8 -113 53 -176 92 -230 171 -241 48
-6 52 0 24 33 -31 37 -82 142 -100 207 -8 29 -14 81 -12 116 4 108 55 154 161
145 44 -4 62 -11 86 -34 63 -59 112 -202 125 -359 5 -72 4 -78 -10 -66 -9 7
-16 17 -16 22 0 21 -102 187 -136 222 -38 39 -111 83 -121 73 -3 -3 4 -20 15
-38 12 -19 27 -45 34 -58 8 -14 35 -58 61 -98 26 -40 47 -76 47 -81 0 -5 4
-11 8 -13 16 -6 76 -158 66 -168 -13 -13 -124 -41 -195 -49 -3 -1 -18 -27 -34
-58 l-28 -57 24 -15 c23 -14 71 -62 244 -241 94 -97 145 -124 228 -117 34 3
71 7 82 10 171 46 212 51 224 29 14 -24 -9 -88 -46 -132 -28 -32 -48 -44 -95
-57 l-61 -17 54 -49 c82 -75 189 -152 237 -171 23 -9 61 -16 84 -16 36 0 47 6
84 44 23 24 45 58 49 75 4 17 10 33 15 36 13 8 66 -65 93 -131 23 -53 70 -222
83 -294 3 -14 11 -46 19 -73 8 -26 14 -49 15 -52 4 -26 16 -30 88 -30 58 -1
88 -6 123 -22 109 -52 211 -163 208 -228 -1 -16 -1 -33 0 -36 1 -4 34 1 74 11
39 10 92 21 115 25 37 6 43 10 39 26 -6 23 2 24 29 4 22 -15 69 -27 77 -19 7
7 -20 130 -44 199 -20 59 -44 114 -121 269 -21 43 -37 81 -34 83 2 3 19 -26
37 -64 51 -107 144 -266 245 -418 106 -160 171 -243 272 -349 38 -40 78 -85
87 -100 38 -57 264 -174 422 -217 231 -63 493 12 748 216 93 74 234 213 304
300 31 38 63 77 71 86 15 17 75 103 136 198 38 59 148 271 187 361 67 153 124
333 162 507 14 65 31 145 38 178 l13 60 18 -53 c10 -29 19 -58 20 -65 1 -7 4
-17 8 -22 23 -36 25 -141 14 -625 -5 -227 -3 -265 14 -344 33 -157 92 -241
159 -230 49 8 141 130 155 206 15 84 57 158 90 158 6 0 31 9 55 20 l43 20 -50
40 c-49 39 -58 53 -67 99 -5 25 -4 25 82 5 78 -18 166 -20 207 -5 15 6 48 27
73 46 60 46 34 46 -76 1 -46 -19 -90 -33 -99 -31 -10 2 -27 4 -39 4 -13 1 -23
7 -23 14 0 18 90 171 130 221 60 75 101 89 179 61 22 -8 41 -12 41 -10 0 3 11
0 25 -5 17 -6 25 -6 25 1 0 16 -64 91 -111 128 -39 32 -41 32 -34 10 5 -18 4
-21 -4 -13 -6 6 -13 21 -16 34 -4 23 -4 23 80 18 l84 -6 -4 39 -4 38 62 -23
c34 -13 84 -24 111 -25 l49 -3 -6 62 c-3 34 -9 66 -14 71 -5 5 -62 10 -126 12
-127 2 -148 11 -162 69 -6 25 -5 27 52 38 216 45 476 343 390 448 -22 28 -56
35 -172 39 -88 3 -131 9 -162 23 -42 19 -47 26 -43 65 6 57 143 145 265 169
64 13 74 14 121 16 109 4 117 2 110 -22 -4 -13 -9 -34 -12 -48 -3 -14 -7 -33
-10 -42 -13 -44 -14 -70 -3 -66 24 8 71 86 75 126 6 63 -5 67 -187 67 -144 0
-160 2 -186 21 -20 15 -29 31 -31 57 -3 30 3 42 37 79 31 32 41 51 41 75 0 18
-1 33 -3 33 -2 0 -32 -12 -68 -26 -79 -32 -97 -36 -120 -23 -75 40 -39 187 58
238 38 20 107 12 192 -20 62 -24 85 -28 95 -20 16 13 36 86 36 128 0 27 -2 28
-42 25 -23 -3 -83 3 -132 13 l-91 17 36 40 c21 22 54 72 75 111 34 65 38 80
38 147 0 110 -16 172 -55 211 -15 15 -19 24 -11 27 27 9 119 85 150 125 41 51
79 123 88 169 11 48 8 142 -4 163 -8 16 -14 9 -41 -44 -17 -35 -31 -67 -31
-73 0 -22 -75 -160 -92 -169 -28 -15 -42 31 -28 96 18 82 19 85 9 79 -5 -3 -9
-11 -9 -19 0 -34 -72 -65 -114 -49 -29 11 -16 22 39 35 45 10 55 16 49 28 -11
29 -20 66 -18 79 1 6 2 18 3 26 0 8 17 29 37 48 96 88 106 105 105 170 -1 56
-3 74 -20 133 -11 41 -9 169 4 200 17 40 -22 -4 -80 -91 -32 -47 -75 -104 -95
-127 -35 -38 -38 -39 -47 -21 -6 10 -18 52 -27 92 -46 206 -76 243 -251 316
-112 46 -152 77 -177 134 -32 72 -8 196 47 242 28 23 75 14 107 -21 29 -31 30
-34 23 -108 -9 -94 -12 -180 -6 -204 3 -16 7 -15 34 10 63 59 87 175 53 256
-21 51 -83 115 -138 143 -59 30 -121 35 -208 17 -88 -19 -166 -18 -236 2 -110
31 -117 49 -59 171 46 96 56 178 31 239 -19 45 -138 234 -147 234 -4 1 -17
-28 -30 -64 -12 -36 -26 -65 -30 -65 -4 0 -7 19 -7 43 1 71 -34 128 -101 162
l-34 17 20 -34 c14 -23 18 -44 14 -71 l-6 -37 -20 30 c-23 35 -35 38 -35 9 0
-31 -19 -59 -40 -59 -19 0 -63 61 -156 218 -27 45 -52 82 -57 82 -10 0 -2 -68
14 -117 7 -21 42 -96 79 -168 37 -71 71 -141 75 -155 l8 -24 -29 19 c-87 57
-202 103 -289 113 -27 3 -112 6 -187 6 -82 -1 -138 3 -138 9 0 5 16 24 35 42
52 47 163 74 313 75 43 0 71 4 67 9 -3 5 -42 24 -88 42 -71 27 -95 32 -177 33
-87 1 -100 -2 -160 -31 -70 -34 -85 -46 -141 -109 -20 -23 -41 -39 -47 -35
-22 14 -52 79 -52 114 0 23 -4 36 -10 32 -17 -10 -76 33 -93 66 -14 29 -14 59
-2 117 6 27 -3 28 -112 7 -103 -20 -100 -21 -114 23 -26 79 -110 176 -185 212
-57 28 -155 36 -207 16z m-992 -575 c-9 -35 -80 -107 -130 -131 -41 -20 -121
-27 -140 -12 -5 4 -11 15 -13 24 -2 12 22 29 90 62 88 42 158 95 158 120 1 6
10 0 21 -13 14 -17 18 -32 14 -50z m3548 -4381 c15 -7 27 -17 27 -22 0 -4 -27
5 -60 22 -96 49 -72 48 33 0z m-3552 -321 c32 -73 57 -134 55 -136 -5 -5 -75
142 -102 216 -37 98 -18 67 47 -80z"/>
<path d="M3970 6320 c0 -6 0 -11 1 -12 0 -2 -4 -16 -10 -32 l-11 -28 28 23
c36 31 38 41 13 51 -12 4 -21 3 -21 -2z"/>
</g>
</svg>
